<?xml version="1.0" standalone="no"?>
<!DOCTYPE svg PUBLIC "-//W3C//DTD SVG 20010904//EN"
 "http://www.w3.org/TR/2001/REC-SVG-20010904/DTD/svg10.dtd">
<svg version="1.0" xmlns="http://www.w3.org/2000/svg"
 width="440.000000pt" height="79.000000pt" viewBox="0 0 440.000000 79.000000"
 preserveAspectRatio="xMidYMid meet">

<g transform="translate(0.000000,79.000000) scale(0.100000,-0.100000)"
fill="#2463ea" stroke="none">
<path d="M80 410 l0 -300 250 0 250 0 0 70 0 70 -160 0 -160 0 0 55 0 55 145
0 145 0 0 70 0 70 -145 0 -145 0 0 35 0 35 155 0 155 0 0 70 0 70 -245 0 -245
0 0 -300z"/>
<path d="M632 698 c3 -7 54 -142 113 -300 l109 -288 97 0 96 0 83 223 c46 122
96 257 112 300 l28 78 -91 -3 -91 -3 -66 -213 c-36 -117 -69 -209 -73 -205 -4
4 -35 101 -70 216 l-64 207 -93 0 c-71 0 -93 -3 -90 -12z"/>
<path d="M1340 410 l0 -300 250 0 250 0 0 70 0 70 -160 0 -160 0 0 55 0 55
145 0 145 0 0 70 0 70 -145 0 -145 0 0 35 0 35 155 0 155 0 0 70 0 70 -245 0
-245 0 0 -300z"/>
<path d="M1950 410 l0 -300 85 0 85 0 2 166 3 165 111 -163 111 -163 86 -3 87
-3 0 301 0 300 -85 0 -85 0 -2 -167 -3 -168 -114 168 -115 167 -83 0 -83 0 0
-300z"/>
<path d="M2610 640 l0 -70 95 0 95 0 0 -230 0 -230 85 0 85 0 0 230 0 230 95
0 95 0 0 70 0 70 -275 0 -275 0 0 -70z"/>
<path d="M3260 410 l0 -300 235 0 235 0 0 75 0 75 -145 0 -145 0 0 225 0 225
-90 0 -90 0 0 -300z"/>
<path d="M3700 705 c0 -3 52 -83 115 -178 l115 -172 0 -122 0 -123 90 0 90 0
0 128 0 129 115 171 116 172 -100 0 -100 0 -57 -95 c-31 -53 -60 -98 -65 -100
-4 -3 -34 39 -66 92 l-59 98 -97 3 c-53 1 -97 0 -97 -3z"/>
</g>
</svg>
